<?xml version="1.0" standalone="no"?>
<!DOCTYPE svg PUBLIC "-//W3C//DTD SVG 1.1//EN" "http://www.w3.org/Graphics/SVG/1.1/DTD/svg11.dtd" >
<svg xmlns="http://www.w3.org/2000/svg">
<metadata></metadata>
<defs>
<font id="scream_realregular" horiz-adv-x="1892" >
<font-face units-per-em="2048" ascent="1638" descent="-410" />
<missing-glyph horiz-adv-x="1021" />
<glyph horiz-adv-x="0" />
<glyph horiz-adv-x="682" />
<glyph unicode=" "  horiz-adv-x="1021" />
<glyph unicode="&#x09;" horiz-adv-x="1021" />
<glyph unicode="&#xa0;" horiz-adv-x="1021" />
<glyph unicode="!" horiz-adv-x="1206" d="M262 178q0 119 96 197q86 65 213 74h-252v1040h568l-4 -1043h-244q126 -9 209 -75q96 -75 96 -193q0 -123 -115 -194q-98 -64 -227 -64q-133 0 -227 64q-113 70 -113 194z" />
<glyph unicode="&#x22;" horiz-adv-x="1284" d="M78 1470h538l-81 -716h-381zM668 1470h538l-82 -716h-376z" />
<glyph unicode="$" horiz-adv-x="1531" d="M100 182l234 355q198 -162 391 -162q162 0 162 88q0 47 -185 94q-250 59 -340 109q-184 99 -184 276q0 442 481 500v264h336v-268q198 -27 389 -117l-221 -342q-166 106 -305 106q-127 0 -127 -55q0 -53 182 -100q243 -62 336 -117q181 -105 181 -299q0 -398 -431 -487 v-301h-337v278q-349 21 -562 178z" />
<glyph unicode="%" horiz-adv-x="2551" d="M86 1102q0 193 195 305q164 92 368 92v2q206 -3 367 -96q192 -113 192 -303q0 -192 -190 -303q-163 -94 -369 -94q-205 0 -368 94q-195 112 -195 303zM510 1100q0 -119 145 -119q146 0 146 119q0 58 -47 88q-39 26 -99 26q-56 0 -98 -28q-47 -35 -47 -86zM537 -31 l1122 1518h373l-1117 -1518h-378zM1343 340q0 188 195 303q163 94 369 94v2q198 -3 364 -100q195 -115 195 -299q0 -192 -193 -303q-162 -90 -366 -90q-203 0 -369 90q-195 112 -195 303zM1767 336q0 -115 144 -115q147 0 147 115q0 52 -49 86q-43 29 -98 29q-53 0 -96 -29 q-48 -36 -48 -86z" />
<glyph unicode="&#x26;" horiz-adv-x="2668" d="M262 383q0 308 393 440v2q-133 109 -133 293q0 210 217 324q178 90 406 90q235 0 414 -105q213 -127 213 -344q0 -230 -302 -344l140 -114l227 206l352 -268l-254 -209l471 -385h-757l-140 123q-374 -160 -616 -160q-245 0 -420 99q-211 120 -211 352zM862 444 q0 -82 160 -82q94 0 141 21v2l-190 170q-111 -43 -111 -111zM1087 1126q0 -69 95 -143q100 26 100 129q0 74 -98 74q-97 0 -97 -60z" />
<glyph unicode="," horiz-adv-x="1155" d="M125 -276l354 720h549l-506 -720h-397z" />
<glyph unicode="." horiz-adv-x="1013" d="M162 268q0 127 110 203q100 68 232 68v2q133 -3 231 -70q113 -76 113 -203t-113 -200q-100 -68 -231 -68q-132 0 -232 68q-110 73 -110 200z" />
<glyph unicode="0" d="M143 737q0 366 217 580q217 217 584 217v2q365 -3 584 -219q221 -218 221 -580q0 -370 -217 -594q-216 -223 -588 -223q-396 0 -614 262q-187 224 -187 555zM715 729q0 -128 45 -235q64 -156 178 -156q126 0 197 151q51 111 51 240q0 123 -53 238q-71 151 -195 151 q-117 0 -178 -155q-45 -110 -45 -234z" />
<glyph unicode="1" horiz-adv-x="1654" d="M412 1079v406h833v-1514h-586v1108h-247z" />
<glyph unicode="2" d="M131 -33l772 668q143 125 170 158q80 95 80 192q0 62 -50 103.5t-118 41.5q-123 0 -123 -137q0 -52 25 -94h-645q0 310 229 481q207 154 526 154q299 0 504 -129q248 -152 248 -432q0 -305 -481 -602l493 2v-406h-1630z" />
<glyph unicode="3" horiz-adv-x="1812" d="M66 -528q0 23 14 39t39 16q83 5 133 2.5t106.5 6.5t120.5 38h2q17 5 75.5 28t66.5 31q32 5 80 32.5t79 33.5q9 9 83.5 65t84.5 56q47 34 77.5 65t54.5 73.5t37.5 76t37.5 102.5l8 19q17 31 31.5 94.5t26.5 91.5q53 74 53 141q0 118 -162 205h-4q-12 -2 -35 -2h-90 q-33 0 -47 -2h-23q-43 0 -118 -11.5t-109 -13.5q-8 -2 -26 -2h-9q-43 3 -75 19q-19 28 -19 51q0 18 12 54t13 42q6 3 21 64.5t22 66.5q8 18 12 39t8.5 30t28 28t74.5 49q6 13 63.5 52.5t71.5 39.5q44 0 92 25l8 14h-2q-10 25 -10 69q0 45 8 78q-5 0 -13.5 16t-13.5 17 q-23 2 -57 2q-38 0 -105 -10t-133 -10h-16q-28 -4 -33 -4q-17 0 -38 11t-48 11q-5 -33 -86 -33l-28 2q-4 -4 -9 -4q-7 0 -29.5 17.5t-37.5 17.5h-4q-9 -39 -54 -39q-21 0 -34 8q-60 25 -60 86q0 59 49 119q27 53 82 53v25q0 7 9 16q11 21 54 36.5t56 27.5q8 -4 25 -4 q47 14 69 14q12 0 25 -10q19 1 72.5 12.5t81.5 11.5q33 0 53 -10q25 0 42 6t29 15.5t17 11.5q5 0 33 -21t62 -45.5t50 -31.5l-22 -4q5 -1 72 34.5t73 34.5q1 -1 13 -59.5t18 -59.5q11 2 19 3.5t11 2.5t5 1q4 0 4 -3q4 -8 37 -22h98q4 0 59 15.5t64 15.5q4 0 4 -4 q0 -10 -35.5 -57.5t-34.5 -57.5q0 -17 1 -43t1 -100q-2 -8 -2 -29q0 -34 20 -99t23 -83q-1 -12 -13.5 -54.5t-12.5 -64.5q0 -39 26 -60q78 -50 116 -127.5t38 -152.5q0 -42 -14 -82q18 -37 18 -100l-12 -199q0 -31 2 -47q18 -35 18 -66q0 -37 -24.5 -78.5t-48 -66 t-66.5 -62.5l-23 -22l11 4q-3 -7 -9.5 -21.5t-11 -23.5t-11 -20t-13.5 -19q-131 -298 -521 -430q-54 -18 -177 -29t-181 -32q-70 -23 -176 -23q-77 0 -203 12h-12q-25 0 -39 17.5t-14 40.5z" />
<glyph unicode="4" d="M131 262v313l725 910h694v-842h211v-381h-205v-291h-563v291h-862zM750 643h256v326z" />
<glyph unicode="5" d="M219 74l92 456q296 -204 523 -204q235 0 235 184q0 84 -131 133q-112 41 -223 41q-175 0 -387 -90v2l182 893h1032v-414h-620l-13 -63l103 2q279 6 461 -129q200 -147 200 -422q0 -298 -270 -436q-205 -105 -537 -105q-194 0 -336 29q-167 35 -311 123z" />
<glyph unicode="6" d="M125 535q0 154 158 362q76 98 284 320v2l258 270h693l-467 -449l100 4q254 9 432 -141q184 -156 184 -407q0 -292 -278 -447q-233 -127 -545 -127q-346 0 -559 127q-260 158 -260 486zM694 489q0 -85 78 -139q68 -47 158 -47q89 0 157 47q78 54 78 139q0 84 -78 138 q-70 49 -157 49q-88 0 -158 -49q-78 -54 -78 -138z" />
<glyph unicode="7" d="M70 -29l817 1104h-692v410h1628l-1106 -1514h-647z" />
<glyph unicode="8" d="M211 406q0 232 285 364q-209 108 -209 334q0 206 217 326q186 104 440 104q251 0 440 -104q222 -121 222 -326q0 -226 -209 -334q284 -132 284 -364q0 -237 -241 -371q-207 -115 -496 -115q-286 0 -493 115q-240 135 -240 371zM788 438q0 -59 44 -93t110 -34 q64 0 107 34.5t43 92.5t-43 91.5t-107 33.5q-154 0 -154 -125zM805 1071q0 -50 40.5 -81.5t96.5 -31.5q58 0 96.5 30.5t38.5 82.5q0 50 -40 83.5t-95 33.5q-59 0 -98 -31.5t-39 -85.5z" />
<glyph unicode="9" d="M125 950q0 297 276 453q228 129 547 129q337 0 553 -125q266 -155 266 -469q0 -164 -153 -375q-64 -88 -291 -330v3l-258 -269h-692l469 445q-64 -9 -101 -9q-250 0 -428 146q-188 153 -188 401zM727 963q0 -86 78 -140q70 -49 158 -49q90 0 157 49q76 52 76 140 q0 83 -78 137q-68 47 -155 47t-158 -47q-78 -54 -78 -137z" />
<glyph unicode=":" horiz-adv-x="1013" d="M162 268q0 127 110 203q100 68 232 68v2q133 -3 231 -70q113 -76 113 -203t-113 -200q-100 -68 -231 -68q-132 0 -232 68q-110 73 -110 200zM162 907q0 127 110 203q101 66 232 66v4q133 -3 231 -70q113 -76 113 -203q0 -129 -113 -205q-98 -67 -231 -67q-132 0 -230 70 q-112 75 -112 202z" />
<glyph unicode=";" horiz-adv-x="1292" d="M180 -287l355 719h548l-505 -719h-398zM428 903q0 127 113 203q100 68 229 68v2q133 -3 231 -70q115 -77 115 -203q0 -130 -112 -205q-98 -67 -234 -67q-132 0 -229 69q-113 76 -113 203z" />
<glyph unicode="?" horiz-adv-x="2668" d="M631 983q0 287 227 430q195 121 494 121q257 0 454 -123q232 -145 232 -387q0 -171 -135 -291q-114 -102 -297 -143v-152h-179q101 -21 168 -88q74 -71 74 -172q0 -122 -113 -192q-98 -64 -227 -64q-121 0 -225 66q-115 71 -115 190q0 99 76 172q67 67 168 88h-184v482 q97 -23 168 -23q84 0 151 31q84 41 84 116q0 93 -113 93q-116 0 -116 -117q0 -13 4 -37h-596z" />
<glyph unicode="A" horiz-adv-x="1804" d="M0 0l647 1477h518l639 -1477h-587l-58 205h-508l-59 -205h-592zM762 524h141h146q-87 245 -105.5 313.5t-40.5 227.5q-22 -157 -39.5 -225.5t-101.5 -315.5z" />
<glyph unicode="B" horiz-adv-x="1290" d="M0 0v1475h584q510 0 510 -400q0 -172 -107 -270q252 -123 252 -389q0 -99 -46.5 -180t-124 -131.5t-174.5 -77.5t-202 -27h-692zM485 365h109q64 0 108.5 25.5t45.5 72.5q0 102 -152 102v2h-111v-202zM485 924h14q146 0 146 84q0 44 -41.5 67t-118.5 23v-174z" />
<glyph unicode="C" horiz-adv-x="1282" d="M-37 735q0 368 283 594q245 193 573 193q202 0 383 -84v-531q-32 46 -68.5 78t-70 49.5t-78.5 27t-79.5 11.5t-86.5 2q-133 0 -239 -86q-115 -95 -115 -254q0 -160 113 -258q100 -86 241 -86h57.5t53.5 2.5t58 7.5t52.5 15t56 24.5t51 38t54.5 53.5v-499h2 q-165 -80 -385 -80q-328 0 -575 188q-281 222 -281 594z" />
<glyph unicode="D" horiz-adv-x="1515" d="M0 0v1477h600q308 0 547 -183q272 -210 272 -559q0 -162 -71.5 -304.5t-200.5 -250.5q-115 -95 -246 -137.5t-301 -42.5h-600zM483 395q101 0 173.5 15.5t130.5 53t88 105t32 166.5q0 168 -108.5 254t-315.5 86v-680z" />
<glyph unicode="E" horiz-adv-x="1198" d="M0 0v1475h1108v-398l-625 2v-166h582l2 -368h-584v-158l625 -2v-385h-1108z" />
<glyph unicode="F" horiz-adv-x="1198" d="M0 0v1475h1108v-396h-625v-147h584v-400h-584v-532h-483z" />
<glyph unicode="G" horiz-adv-x="1769" d="M0 735q0 391 279 606q238 185 581 185q517 0 733 -457l-456 -186q-24 109 -117 178q-83 59 -186 59q-154 0 -240 -112q-90 -106 -90 -289q0 -174 94 -279q91 -110 240 -110q215 0 272 153l-311 -2v371l858 -2l2 -90q1 -23 1 -45q0 -382 -243 -584q-220 -178 -583 -178 q-359 0 -576 176q-258 205 -258 606z" />
<glyph unicode="H" horiz-adv-x="1533" d="M0 0v1475h485v-531h469v531h486v-1475h-486v573h-469v-573h-485z" />
<glyph unicode="I" horiz-adv-x="577" d="M0 0v1475h485v-1475h-485z" />
<glyph unicode="J" horiz-adv-x="1091" d="M0 207l285 287q91 -125 157 -142q70 21 70 160v965h485v-959q0 -276 -149 -428q-133 -139 -375 -139q-131 0 -266 63q-136 71 -207 193z" />
<glyph unicode="K" horiz-adv-x="1585" d="M0 0v1477h483v-476l394 476h612l-633 -699l684 -778h-618l-439 512v-512h-483z" />
<glyph unicode="L" horiz-adv-x="1054" d="M0 0v1475h485v-1076h476v-399h-961z" />
<glyph unicode="M" horiz-adv-x="2015" d="M0 0l276 1475h461l207 -504q40 -116 48.5 -155.5t15.5 -160.5q7 123 15 162.5t48 153.5l207 504h463l274 -1475h-481l-88 508q-4 33 -9 73l-7 56t-5 44.5t-5 59t-5 78.5q-10 -121 -18 -159.5t-45 -151.5l-344 -995l-342 995q-42 135 -49 176q-7 38 -15 135 q-2 -49 -4 -78.5t-4.5 -59.5t-4.5 -44t-7 -56.5t-9 -72.5l-88 -508h-485z" />
<glyph unicode="N" horiz-adv-x="1669" d="M0 0v1475h467l635 -758v758h473v-1475h-447l-643 760v-760h-485z" />
<glyph unicode="O" horiz-adv-x="1953" d="M-2 739v16q0 139 48 263q51 132 141.5 227.5t210.5 162.5q118 68 258 97q104 22 209 22q36 0 73 -3q18 1 36 1q100 0 198 -19q116 -22 221 -66t193 -113.5t152 -156.5q62 -87 96 -199q28 -95 29 -199q0 -19 -1 -37v-11q0 -140 -48 -264q-50 -130 -137.5 -225.5t-204 -163 t-254.5 -97.5q-103 -22 -208 -22q-36 0 -72 3q-21 -1 -41 -1q-121 0 -241 26q-140 30 -261.5 95t-212.5 159q-92 94 -142 224q-43 114 -43 244q0 18 1 37zM510 737q0 -86 37 -156t98 -113.5t136.5 -67t156.5 -23.5q83 0 155 21t130.5 62.5t92.5 112.5t34 164 q0 107 -57.5 191t-151 128t-203.5 44q-65 0 -125.5 -12.5t-116 -40.5t-96.5 -69t-65.5 -103t-24.5 -138z" />
<glyph unicode="P" horiz-adv-x="1312" d="M0 2v1473h688q215 0 365 -117q166 -141 166 -383q0 -323 -211 -440q-138 -75 -456 -75q-34 0 -71 1v-459h-481zM475 840h98q152 0 152 133q0 46 -28 81.5t-68 35.5h-154v-250z" />
<glyph unicode="Q" horiz-adv-x="1953" d="M-2 739v16q0 139 48 263q51 132 141.5 227.5t210 163t258.5 96.5q104 22 209 22q37 0 73 -3q18 1 36 1q100 0 198 -19q116 -22 221 -66t193 -113.5t151.5 -156.5t96.5 -199q29 -95 29 -199q0 -18 -1 -37v-9q0 -277 -181 -484l304 -256l-494 -68l-121 105 q-176 -70 -364 -70q-34 0 -68 2q-21 -1 -41 -1q-122 0 -241 26q-140 29 -261.5 94.5t-213 159t-141.5 224.5q-43 114 -43 244q0 18 1 37zM510 737q0 -86 37 -156t98 -113.5t136.5 -67t156.5 -23.5h2l-242 198l512 62l97 -82q43 78 43 182q0 107 -57.5 191t-151 128 t-203.5 44q-65 0 -125.5 -12.5t-116 -40.5t-96.5 -69t-65.5 -103t-24.5 -138z" />
<glyph unicode="R" horiz-adv-x="1415" d="M0 0v1475h633q98 0 185 -18t161 -57.5t127.5 -96.5t84 -138.5t30.5 -181.5q0 -136 -78 -238t-228 -157l500 -588h-620l-310 422v-422h-485zM485 854h47q72 0 120.5 32t49.5 97q0 60 -51 92q-47 29 -107 29h-12h-47v-250z" />
<glyph unicode="S" horiz-adv-x="1384" d="M-80 147l244 383q91 -74 240 -110.5t241 -36.5q44 0 70.5 12t25.5 49q-1 26 -30 45.5t-66 28.5q-111 26 -196.5 55t-173.5 75t-145.5 101.5t-93.5 136.5t-36 179q0 77 23 144t73 126t124 101t182.5 66t242.5 24q320 0 619 -140l-232 -372q-86 54 -200.5 86.5t-188.5 32.5 q-129 0 -129 -68q0 -27 18.5 -37.5t112.5 -36.5q237 -64 329 -103q206 -84 283 -225q50 -93 54 -219l2 -2q-1 -83 -22.5 -153.5t-71 -133t-125 -106.5t-190 -69t-259.5 -25q-223 0 -411.5 48.5t-313.5 143.5z" />
<glyph unicode="T" horiz-adv-x="1220" d="M0 1098v377h1128v-377h-321v-1100h-483v1100h-324z" />
<glyph unicode="U" horiz-adv-x="1480" d="M0 645v830h483v-830q0 -283 205 -283q215 0 215 281v832h483v-830q0 -692 -698 -692q-688 0 -688 692z" />
<glyph unicode="V" horiz-adv-x="1464" d="M0 1475h461l207 -504q40 -114 48 -153.5t15 -162.5q7 121 15.5 160.5t48.5 155.5l206 504h463l-733 -1962z" />
<glyph unicode="W" horiz-adv-x="2328" d="M0 1475h461l207 -504q40 -114 48 -153.5t15 -162.5q7 121 15.5 160.5t48.5 155.5l206 504h326l209 -504q40 -114 48 -153.5t15 -162.5q7 121 15.5 160.5t48.5 155.5l207 504h459l-730 -1962l-372 995q-39 108 -46.5 147.5t-15.5 163.5q-8 -122 -15.5 -161.5t-45.5 -149.5 l-373 -995z" />
<glyph unicode="X" horiz-adv-x="1695" d="M-119 -2l664 788l-545 689h637l211 -320l215 320h633l-543 -689l662 -788h-627l-340 420l-336 -420h-631z" />
<glyph unicode="Y" horiz-adv-x="1695" d="M0 1475h637l213 -308l213 308h633l-604 -764v-711h-486v713z" />
<glyph unicode="Z" horiz-adv-x="1980" d="M-74 2l772 1088h-585v385h1446l-756 -1080h631v-393h-1508z" />
<glyph unicode="a" horiz-adv-x="1804" d="M0 0l647 1477h518l639 -1477h-587l-58 205h-508l-59 -205h-592zM762 524h141h146q-87 245 -105.5 313.5t-40.5 227.5q-22 -157 -39.5 -225.5t-101.5 -315.5z" />
<glyph unicode="b" horiz-adv-x="1290" d="M0 0v1475h584q510 0 510 -400q0 -172 -107 -270q252 -123 252 -389q0 -99 -46.5 -180t-124 -131.5t-174.5 -77.5t-202 -27h-692zM485 365h109q64 0 108.5 25.5t45.5 72.5q0 102 -152 102v2h-111v-202zM485 924h14q146 0 146 84q0 44 -41.5 67t-118.5 23v-174z" />
<glyph unicode="c" horiz-adv-x="1282" d="M-37 735q0 368 283 594q245 193 573 193q202 0 383 -84v-531q-32 46 -68.5 78t-70 49.5t-78.5 27t-79.5 11.5t-86.5 2q-133 0 -239 -86q-115 -95 -115 -254q0 -160 113 -258q100 -86 241 -86h57.5t53.5 2.5t58 7.5t52.5 15t56 24.5t51 38t54.5 53.5v-499h2 q-165 -80 -385 -80q-328 0 -575 188q-281 222 -281 594z" />
<glyph unicode="d" horiz-adv-x="1515" d="M0 0v1477h600q308 0 547 -183q272 -210 272 -559q0 -162 -71.5 -304.5t-200.5 -250.5q-115 -95 -246 -137.5t-301 -42.5h-600zM483 395q101 0 173.5 15.5t130.5 53t88 105t32 166.5q0 168 -108.5 254t-315.5 86v-680z" />
<glyph unicode="e" horiz-adv-x="1198" d="M0 0v1475h1108v-398l-625 2v-166h582l2 -368h-584v-158l625 -2v-385h-1108z" />
<glyph unicode="f" horiz-adv-x="1198" d="M0 0v1475h1108v-396h-625v-147h584v-400h-584v-532h-483z" />
<glyph unicode="g" horiz-adv-x="1769" d="M0 735q0 391 279 606q238 185 581 185q517 0 733 -457l-456 -186q-24 109 -117 178q-83 59 -186 59q-154 0 -240 -112q-90 -106 -90 -289q0 -174 94 -279q91 -110 240 -110q215 0 272 153l-311 -2v371l858 -2l2 -90q1 -23 1 -45q0 -382 -243 -584q-220 -178 -583 -178 q-359 0 -576 176q-258 205 -258 606z" />
<glyph unicode="h" horiz-adv-x="1533" d="M0 0v1475h485v-531h469v531h486v-1475h-486v573h-469v-573h-485z" />
<glyph unicode="i" horiz-adv-x="577" d="M0 0v1475h485v-1475h-485z" />
<glyph unicode="j" horiz-adv-x="1091" d="M0 207l285 287q91 -125 157 -142q70 21 70 160v965h485v-959q0 -276 -149 -428q-133 -139 -375 -139q-131 0 -266 63q-136 71 -207 193z" />
<glyph unicode="k" horiz-adv-x="1585" d="M0 0v1477h483v-476l394 476h612l-633 -699l684 -778h-618l-439 512v-512h-483z" />
<glyph unicode="l" horiz-adv-x="1054" d="M0 0v1475h485v-1076h476v-399h-961z" />
<glyph unicode="m" horiz-adv-x="2015" d="M0 0l276 1475h461l207 -504q40 -116 48.5 -155.5t15.5 -160.5q7 123 15 162.5t48 153.5l207 504h463l274 -1475h-481l-88 508q-4 33 -9 73l-7 56t-5 44.5t-5 59t-5 78.5q-10 -121 -18 -159.5t-45 -151.5l-344 -995l-342 995q-42 135 -49 176q-7 38 -15 135 q-2 -49 -4 -78.5t-4.5 -59.5t-4.5 -44t-7 -56.5t-9 -72.5l-88 -508h-485z" />
<glyph unicode="n" horiz-adv-x="1669" d="M0 0v1475h467l635 -758v758h473v-1475h-447l-643 760v-760h-485z" />
<glyph unicode="o" horiz-adv-x="1953" d="M-2 739v16q0 139 48 263q51 132 141.5 227.5t210.5 162.5q118 68 258 97q104 22 209 22q36 0 73 -3q18 1 36 1q100 0 198 -19q116 -22 221 -66t193 -113.5t152 -156.5q62 -87 96 -199q28 -95 29 -199q0 -19 -1 -37v-11q0 -140 -48 -264q-50 -130 -137.5 -225.5t-204 -163 t-254.5 -97.5q-103 -22 -208 -22q-36 0 -72 3q-21 -1 -41 -1q-121 0 -241 26q-140 30 -261.5 95t-212.5 159q-92 94 -142 224q-43 114 -43 244q0 18 1 37zM510 737q0 -86 37 -156t98 -113.5t136.5 -67t156.5 -23.5q83 0 155 21t130.5 62.5t92.5 112.5t34 164 q0 107 -57.5 191t-151 128t-203.5 44q-65 0 -125.5 -12.5t-116 -40.5t-96.5 -69t-65.5 -103t-24.5 -138z" />
<glyph unicode="p" horiz-adv-x="1312" d="M0 2v1473h688q215 0 365 -117q166 -141 166 -383q0 -323 -211 -440q-138 -75 -456 -75q-34 0 -71 1v-459h-481zM475 840h98q152 0 152 133q0 46 -28 81.5t-68 35.5h-154v-250z" />
<glyph unicode="q" horiz-adv-x="1953" d="M-2 739v16q0 139 48 263q51 132 141.5 227.5t210 163t258.5 96.5q104 22 209 22q37 0 73 -3q18 1 36 1q100 0 198 -19q116 -22 221 -66t193 -113.5t151.5 -156.5t96.5 -199q29 -95 29 -199q0 -18 -1 -37v-9q0 -277 -181 -484l304 -256l-494 -68l-121 105 q-176 -70 -364 -70q-34 0 -68 2q-21 -1 -41 -1q-122 0 -241 26q-140 29 -261.5 94.5t-213 159t-141.5 224.5q-43 114 -43 244q0 18 1 37zM510 737q0 -86 37 -156t98 -113.5t136.5 -67t156.5 -23.5h2l-242 198l512 62l97 -82q43 78 43 182q0 107 -57.5 191t-151 128 t-203.5 44q-65 0 -125.5 -12.5t-116 -40.5t-96.5 -69t-65.5 -103t-24.5 -138z" />
<glyph unicode="r" horiz-adv-x="1415" d="M0 0v1475h633q98 0 185 -18t161 -57.5t127.5 -96.5t84 -138.5t30.5 -181.5q0 -136 -78 -238t-228 -157l500 -588h-620l-310 422v-422h-485zM485 854h47q72 0 120.5 32t49.5 97q0 60 -51 92q-47 29 -107 29h-12h-47v-250z" />
<glyph unicode="s" horiz-adv-x="1384" d="M-80 147l244 383q91 -74 240 -110.5t241 -36.5q44 0 70.5 12t25.5 49q-1 26 -30 45.5t-66 28.5q-111 26 -196.5 55t-173.5 75t-145.5 101.5t-93.5 136.5t-36 179q0 77 23 144t73 126t124 101t182.5 66t242.5 24q320 0 619 -140l-232 -372q-86 54 -200.5 86.5t-188.5 32.5 q-129 0 -129 -68q0 -27 18.5 -37.5t112.5 -36.5q237 -64 329 -103q206 -84 283 -225q50 -93 54 -219l2 -2q-1 -83 -22.5 -153.5t-71 -133t-125 -106.5t-190 -69t-259.5 -25q-223 0 -411.5 48.5t-313.5 143.5z" />
<glyph unicode="t" horiz-adv-x="1220" d="M0 1098v377h1128v-377h-321v-1100h-483v1100h-324z" />
<glyph unicode="u" horiz-adv-x="1480" d="M0 645v830h483v-830q0 -283 205 -283q215 0 215 281v832h483v-830q0 -692 -698 -692q-688 0 -688 692z" />
<glyph unicode="v" horiz-adv-x="1464" d="M0 1475h461l207 -504q40 -114 48 -153.5t15 -162.5q7 121 15.5 160.5t48.5 155.5l206 504h463l-733 -1962z" />
<glyph unicode="w" horiz-adv-x="2328" d="M0 1475h461l207 -504q40 -114 48 -153.5t15 -162.5q7 121 15.5 160.5t48.5 155.5l206 504h326l209 -504q40 -114 48 -153.5t15 -162.5q7 121 15.5 160.5t48.5 155.5l207 504h459l-730 -1962l-372 995q-39 108 -46.5 147.5t-15.5 163.5q-8 -122 -15.5 -161.5t-45.5 -149.5 l-373 -995z" />
<glyph unicode="x" horiz-adv-x="1695" d="M-119 -2l664 788l-545 689h637l211 -320l215 320h633l-543 -689l662 -788h-627l-340 420l-336 -420h-631z" />
<glyph unicode="y" horiz-adv-x="1695" d="M0 1475h637l213 -308l213 308h633l-604 -764v-711h-486v713z" />
<glyph unicode="z" horiz-adv-x="1980" d="M-74 2l772 1088h-585v385h1446l-756 -1080h631v-393h-1508z" />
<glyph unicode="&#xdf;" horiz-adv-x="2054" d="M39 336q0 -14 10 -31l6 -2h-4l6 -8q4 0 4 -8h13l6 -6v6l8 2l6 6q2 2 2 20q0 13 2 15v4l4 6q7 51 7 57v15l4 10v20q14 80 14 148v31l14 -25q18 -55 21 -55q0 -13 20 -54q19 -31 19 -41q11 -19 28 -59q16 -36 31 -39l2 -2q27 0 29 2q9 28 14 33q0 12 31 76v4q9 16 12 55 l6 4v8h4q0 15 7 31q1 11 4 19t5 10l3 2q0 10 -10 20q4 8 6.5 15t4 13t1.5 7v8l-2 15q1 2 1.5 9t2 11.5t4.5 5.5l-8 8v89q-6 6 -9.5 24.5t-5.5 22.5q-3 4 -7.5 21t-12.5 34q-14 25 -14 43q-11 12 -19 20l-11 11t-8 7l-3 3l-17 -4q0 -3 -4.5 -10t-5.5 -9l2 -6q0 -8 -1 -15.5 t-1 -10.5q0 -17 2 -19h6q2 -6 8 -20q6 -10 13 -17l5 -12q4 -13 5 -23q10 -23 10 -32v-8q10 -30 10 -35q0 -68 -10 -127v-11q0 6 -2 -1l-2 -13v-20l-8 6v-31q0 -5 -10 -22q0 -23 -11 -23q0 -23 -16 -39q-4 5 -29 55q-5 19 -20 54l-2 4l2 8q-12 21 -16 51l2 6l-13 4 q-10 40 -28 95q-12 41 -35 79l-12 19l-13 6q-2 0 -10 -8v-2l-2 -6q-4 -4 -4 -19l-6 -10v-2q0 -7 -6 -25l2 -10q-9 -18 -9 -41v-39l5 -6l-5 -55l7 -4q0 -9 -7 -19q10 -16 0 -39v-12q0 -4 -2 -14t-2 -15v-10q-8 -64 -8 -90v-14q-10 -39 -10 -80zM358 471q0 -54 29 -113 q13 -5 28 -13t21 -11l8 2l2 -2h5l2 2h8q10 -10 16 -10q14 0 21 10q2 -2 20 -2h8v6h4l15 -6h12l2 6l12 3t11 3t8 3t9 4.5t9 6.5h2l6 9h2q18 24 27 24q0 1 6 13t6 16q9 36 9 47q0 22 -7 43l-2 2l2 2q-9 28 -18 49q0 3 -2 7.5t-6 11.5t-6 12l-7.5 12.5t-7.5 12t-4 8.5h-8 q-14 14 -41 26q-33 18 -41 29l-4 -6l-8 6l-4 -18h-4l-4 -11h8l-4 -16q0 -6 -4 -10h-11l-2 10l-4 8l-8 -6l-6 6l-12 -8h-5q-3 0 -32 -29l-4 -6l-2 -6l-2 -8l-13 -4q-15 -26 -16 -29q-12 -12 -12 -31v-4q-7 -19 -7 -51zM408 457v14q16 32 16 43q17 0 27 23l10 -7q1 0 3 5.5 t5 5.5h8q0 -7 12 -19l9 6q0 1 1.5 2t3.5 2.5t3 4.5l4 4q-4 0 -4 8v8l4 14l-8 33v6h2l2 -6v-6q16 -8 37 -8q8 -7 14 -17q2 -5 9.5 -9.5t13.5 -4.5q3 -9 12 -18q0 -6 18 -27q13 -30 13 -37q0 -13 -43 -31q-5 -2 -20 -6.5t-25 -9.5q-19 0 -25 -6l-4 4q-12 -6 -23 -6h-2l-4 6h-2 q-4 0 -6 2q-25 0 -33 8l-4 -8q-24 15 -24 27zM631 694q0 -11 10 -53q2 -12 5 -24.5t4 -18t1 -8.5l6 -6q0 -15 2 -17l-2 -10q2 -2 2 -8q0 -25 29 -154h6q0 -17 11 -35l4 5l8 -5q27 15 33 58l6 4q-11 11 -11 16v4l11 33q0 21 2 23q0 4 2.5 14t3.5 18l10 29v4q0 6 -2 8l2 4v5 q0 4 4 4v6l23 22q3 0 9.5 4t8.5 5h6v2h21l4 -2l20 -3q0 2 -6 4l-2 1q34 0 45 43q9 33 -2 47q-8 12 -22 -19v11q-13 8 -23 10q-2 -2 -14 -2h-17q-5 0 -10 -8q-19 12 -28 0l-3 -3q-14 0 -20 -6l-6 -2h-4l-17 -26q-14 -47 -16 -64v-2q-10 -17 -10 -31h-2v-16l-4 12v21q0 2 6 8 q-2 5 -3.5 12t-2.5 10.5t-4 4.5q-7 16 -7 22v2q-10 17 -10 29l-12 33l-2 4q-4 8 -17 20q-10 -4 -18 -17.5t-8 -21.5zM704 -19q2 -50 33 -98q49 -76 136 -115t188 -12q-24 7 -73.5 11.5t-81 18t-58.5 50.5q-52 44 -66 108t9 120.5t71 85.5q19 22 62 46t91 43.5t102.5 50 t98.5 65t76.5 89.5t38.5 121q2 69 -32 119.5t-82 69t-99.5 11t-83.5 -43.5l-59 -64l8 101q49 28 87 42.5t69.5 15t51 -2.5t52 -13t51.5 -14q-37 34 -59.5 50t-58 27t-81 6t-112.5 -23q19 145 6 291.5t-51 242.5q0 -88 -18 -185t-65 -200t-116 -157l-14 -17q37 15 68 35 t51.5 40t37 46t25 46t15.5 46.5t9.5 41.5t5 37t3.5 28q2 -2 2 -41q0 -27 -4 -86.5t-4 -77.5l-6 -117q-28 -4 -60 -13t-65.5 -22t-55.5 -31.5t-22 -37.5q38 10 109.5 25t85.5 18q0 -2 -3 -42.5t-9.5 -96.5t-18.5 -124t-36 -142t-56 -132q32 14 68.5 102t67 182.5t42.5 110.5 q33 41 52 59t50.5 30.5t73.5 9.5q55 -10 84 -48.5t27 -91t-24 -107.5t-71 -104.5t-112 -74.5q-26 -17 -93.5 -47t-122.5 -61.5t-81 -65.5q-24 -18 -40 -51t-14 -83zM1085 6h17v103l67 -103h19v131h-17v-104l-69 104h-17v-131zM1210 53q0 -49 43 -49t43 51q0 23 -12 36 t-31 13q-43 0 -43 -51zM1227 53q0 35 26 35q27 0 27 -35q0 -33 -27 -33q-26 0 -26 33zM1315 6h16v49q0 19 2 21q3 12 15 12q4 -2 12 -4l6 14q-9 6 -18 6t-19 -16v14h-14v-96zM1333 543q0 -56 27 -111q41 -14 49 -24l8 4v-4h10v4h5q9 -9 22 -9q10 0 16 9l19 -4h10l4 8v2 l13 -10h16l2 10q23 4 47 20h2l6 6h2q22 25 27 25l5 10q5 10 5 15q10 42 10 47q0 31 -6 45l-4 2l4 8q-14 40 -14 45q-9 9 -19 29q-3 5 -6.5 12t-6 11.5t-5.5 8.5h-6q-15 21 -41 31q-35 12 -45 29l-2 -6l-4 6l-6 -21l-7 -2l-4 -6l9 -2l-5 -18q0 -7 -4 -11l-8 3l-4 10l-6 6 l-6 -6l-6 8l-11 -8h-8q-3 0 -31 -31v-6l-8 -2l-2 -10l-12 -9q-3 -5 -7 -11t-7 -11q-11 -18 -11 -33v-4q-6 -21 -6 -55zM1366 86h14v-80h17v80h18v16h-18v7q0 14 12 14q8 0 10 -2l2 16q-2 2 -14 2q-17 0 -27 -14v-23h-14v-16zM1376 522v21q17 28 23 41q14 0 20 26h6l5 -8l8 6 t4 4h6q0 -4 2.5 -7.5t5 -5.5t2.5 -3l8 2q0 3 2.5 5.5t6.5 4.5l4 2h4q-4 4 -4 6v7l-2 6l6 18q-3 4 -6.5 14t-6.5 15l5 2l2 4l2 -6v-8q7 -1 18 -5t16 -4l1 -1q1 -2 2 -3.5t4 -3.5t8 -4q5 -8 20 -8q3 -10 17 -27q0 -1 2.5 -4.5t7.5 -9.5t8 -12q1 -7 4.5 -19t3.5 -16 q0 -23 -39 -37q-10 0 -25 -4.5t-20 -5.5q-21 0 -24 -6l-4 4q-13 -8 -21 -8h-4l-6 4q-7 0 -10 6q-29 0 -31 2l-4 -2q-27 15 -27 18zM1425 53q0 -49 43 -49t43 51q0 23 -12 36t-31 13q-43 0 -43 -51zM1442 53q0 35 26 35q27 0 27 -35q0 -33 -27 -33q-26 0 -26 33zM1530 6h16 v37l10 10l31 -47h21l-41 60l39 36h-25l-35 -36v71h-16v-131zM1634 377q0 -7 2 -25t2 -22v-8l11 -5q0 -8 1 -8t1 -0.5t1.5 -2.5t2.5 -5l6 -6l6 -19q5 15 10 33t8 26.5t7 12.5l-4 21l8 14l-4 4l4 35v20l2 2q10 -10 41 -32l18 10q4 -4 8 -4q13 0 15 -2q3 -4 7 -6.5t7 -3.5h2 l6 6q1 -3 8 -8t9 -7q18 0 22 -4l2 2l4 -10h21l6 -4q4 0 6 -1t5 -4t7 -5q18 -11 19 -11q22 0 47 -14v-6q8 0 8 6l8 -10v4l6 -4v10l15 2l4 8v25q-2 2 -5 6t-6 6.5t-8 3.5q7 10 -14 45q-6 2 -16.5 9.5t-18.5 7.5v-2q-6 13 -20 18q-12 0 -29 10q-20 9 -55 27q-53 27 -76 27 q-20 0 -20 4q13 22 20 22q0 5 6 8q0 12 19 31q2 6 8 12q1 1 3 4.5t3 4.5q2 0 4 2h2l4 4q0 6 4 10l13 6h2q4 6 8 15.5t6 13.5q7 0 10 8q3 10 12 10q14 0 29.5 13.5t18.5 15.5l4 8q3 0 5 1.5t5.5 5.5t7.5 7l4 5q-9 9 2 20v4l4 2q4 4 9 4v4q4 4 4 11q0 14 2 16q24 21 24 25 q2 5 4.5 13.5t4 13t4.5 5.5q4 0 4 17q0 6 -3 15.5t-10 29.5t-12 35q-17 0 -20 -25l-27 -27q-3 -6 -10 -15t-8 -13q-3 -1 -8 -5t-19 -17.5t-27 -24.5q-36 -45 -43 -62q-5 0 -24 -28q-29 -29 -29 -35q-11 -8 -22 -21.5t-11 -19.5l-4 4l-2 12q0 23 2 25q1 5 2 11.5t1.5 10 t0.5 6.5v33q6 64 6 119q0 12 -6 12l4 13q-3 6 -10.5 23.5t-13.5 23.5v2l-10 16l-17 -6q0 -8 -4 -12l2 -17l-2 -12l2 -4q-6 -42 -6 -72q4 -4 4 -14q-6 -18 -6 -37v-23q0 -22 -2 -24l-4 -21q0 -16 -2 -18q0 -16 -2 -18l2 -11l-2 -10l1 -5q1 -5 1 -9q0 -3 -1 -6t-1 -7v-16 q0 -4 -1 -14t-1 -15l2 -4v-20q0 -7 -1 -14.5t-1 -14.5q0 -42 -9 -88q-1 -21 -3.5 -53t-2.5 -41zM1677 6h17v131h-17v-131zM1724 6h17v49q0 33 24 33q21 0 21 -27v-55h16v57q0 15 -2 17q-10 24 -31 24q-18 0 -28 -16v14h-17v-96zM1821 53q0 -49 41 -49q32 0 41 35l-17 2 q-3 -21 -24 -21q-25 0 -25 33q0 35 25 35q9 0 22 -16l17 2q-9 30 -39 30q-41 0 -41 -51zM1921 6h16v17h-16v-17z" />
<glyph unicode="&#x2000;" horiz-adv-x="895" />
<glyph unicode="&#x2001;" horiz-adv-x="1790" />
<glyph unicode="&#x2002;" horiz-adv-x="895" />
<glyph unicode="&#x2003;" horiz-adv-x="1790" />
<glyph unicode="&#x2004;" horiz-adv-x="596" />
<glyph unicode="&#x2005;" horiz-adv-x="447" />
<glyph unicode="&#x2006;" horiz-adv-x="298" />
<glyph unicode="&#x2007;" horiz-adv-x="298" />
<glyph unicode="&#x2008;" horiz-adv-x="223" />
<glyph unicode="&#x2009;" horiz-adv-x="358" />
<glyph unicode="&#x200a;" horiz-adv-x="99" />
<glyph unicode="&#x202f;" horiz-adv-x="358" />
<glyph unicode="&#x205f;" horiz-adv-x="447" />
<glyph unicode="&#x25fc;" horiz-adv-x="1474" d="M0 0v1475h1475v-1475h-1475z" />
</font>
</defs>
</svg>
